Coordinates
version=1
nRows=24
nColumns=24
inDegrees=yes

Units are S.I. units (second, meters, Newtons, ...)
Angles are in degrees.

endheader
time	pelvis_tilt	pelvis_list	pelvis_rotation	pelvis_tx	pelvis_ty	pelvis_tz	hip_flexion_r	hip_adduction_r	hip_rotation_r	knee_angle_r	ankle_angle_r	subtalar_angle_r	mtp_angle_r	hip_flexion_l	hip_adduction_l	hip_rotation_l	knee_angle_l	ankle_angle_l	subtalar_angle_l	mtp_angle_l	lumbar_extension	lumbar_bending	lumbar_rotation
      2.38000000	      9.32906456	      5.36036589	     -1.72446298	      0.69421184	      0.93893563	     -0.03073661	    -13.35073189	     -7.52855718	     -2.33348554	    -47.43615976	      4.76967516	     -5.04032837	     54.23290006	      4.71388607	      7.78395817	    -10.82409533	    -11.78481981	      7.77337807	    -12.25025200	     25.38024701	    -16.01001599	     -8.25642294	      2.86978895
      2.38500000	      9.12492358	      5.38791882	     -1.83024856	      0.69965918	      0.93918917	     -0.03140136	    -12.14138713	     -7.65022963	     -1.94394918	    -49.20304895	      3.70955044	     -5.38214624	     54.19260142	      4.65250577	      7.84365930	    -10.99655765	    -11.96696715	      8.38827666	    -11.93528444	     24.47271605	    -15.81000081	     -8.30735410	      2.94617066
      2.39000000	      8.97951915	      5.36743948	     -1.93391205	      0.70506592	      0.93955152	     -0.03202968	    -11.01924277	     -7.70414624	     -1.56908190	    -50.85634109	      2.80490331	     -5.68374112	     53.97694326	      4.51656101	      7.85476159	    -11.16294582	    -12.12652627	      8.92751694	    -11.71536672	     23.83166884	    -15.67980210	     -8.30369687	      3.02610830
      2.39500000	      8.80405730	      5.36183904	     -2.01162489	      0.71050360	      0.93988287	     -0.03267476	     -9.88823149	     -7.75810316	     -1.25263543	    -52.42938285	      2.11573610	     -6.03923969	     53.55625633	      4.38266589	      7.88637705	    -11.29546384	    -12.22861384	      9.48467041	    -11.44291394	     23.10768044	    -15.51290585	     -8.30679237	      3.04308580
      2.40000000	      8.73291171	      5.37074305	     -2.08716364	      0.71592978	      0.94035210	     -0.03330044	     -8.89949853	     -7.82738693	     -1.00476108	    -53.91161877	      1.76427611	     -6.31572828	     51.88411840	      4.11241592	      7.94382914	    -11.37241357	    -12.30049995	     10.19661401	    -11.02358220	     20.61424639	    -15.46441841	     -8.32870651	      3.08919851
      2.40500000	      8.64517932	      5.31454131	     -2.16908121	      0.72130652	      0.94083830	     -0.03388158	     -7.90490877	     -7.80789100	     -0.74309392	    -55.28196735	      1.47415719	     -6.76537062	     51.71932703	      3.84612565	      7.92982189	    -11.46400079	    -12.32138205	     10.61672189	    -10.85274355	     20.53280921	    -15.40098430	     -8.27640986	      3.15443988
      2.41000000	      8.45823959	      5.27104154	     -2.17865717	      0.72664948	      0.94117585	     -0.03453465	     -6.81658863	     -7.79127917	     -0.58440609	    -56.60897251	      1.44736191	     -7.10354519	     50.92487976	      3.71031026	      7.92200271	    -11.49710176	    -12.39562483	     11.11245058	    -10.54875131	     20.07520818	    -15.23556490	     -8.22000784	      3.11260219
      2.41500000	      8.49177030	      5.21277684	     -2.29150196	      0.73202644	      0.94187444	     -0.03503895	     -5.99677279	     -7.76103684	     -0.36522559	    -57.77413152	      1.49830806	     -7.66310402	     50.65688644	      3.25330241	      7.92688240	    -11.56113348	    -12.28952927	     11.38457099	    -10.56349072	     19.96586953	    -15.30211551	     -8.17095617	      3.18580306
      2.42000000	      8.31554768	      5.10963956	     -2.32469659	      0.73728905	      0.94224707	     -0.03560414	     -4.93602128	     -7.65533538	     -0.20144553	    -58.95838378	      1.95439279	     -7.83581825	     47.80349755	      3.08722894	      7.85920436	    -11.57019842	    -12.32738856	     11.95861192	    -10.27013985	     18.53653669	    -15.15131340	     -8.05123074	      3.19876707
      2.42500000	      8.30181629	      5.01741135	     -2.38046332	      0.74259932	      0.94289140	     -0.03612270	     -4.10099615	     -7.56568970	     -0.08219283	    -59.96032090	      2.29917577	     -8.44566553	     47.65836094	      2.69077055	      7.82168953	    -11.57974859	    -12.24434055	     12.24507916	    -10.19905555	     18.49519370	    -15.17689427	     -7.95101342	      3.21855284
      2.43000000	      8.11638457	      4.91305709	     -2.41215453	      0.74779427	      0.94324313	     -0.03665928	     -3.04607427	     -7.45194956	      0.02133769	    -60.98537123	      2.89142562	     -8.75614494	     45.55982444	      2.52317643	      7.75690535	    -11.55912484	    -12.24633062	     12.75545664	     -9.98936505	     17.58834958	    -15.02167260	     -7.82741646	      3.23082410
      2.43500000	      8.09171492	      4.76482846	     -2.46308617	      0.75304584	      0.94390813	     -0.03712049	     -2.22878673	     -7.27451168	      0.11506507	    -61.80779995	      3.37339773	     -9.44954305	     45.38013333	      2.12571612	      7.65899503	    -11.54396721	    -12.13501364	     12.98085048	     -9.95872875	     17.54645607	    -15.03999260	     -7.66231462	      3.26153904
      2.44000000	      7.86193687	      4.66837398	     -2.46135673	      0.75823294	      0.94419855	     -0.03766719	     -1.15808904	     -7.16298906	      0.13063978	    -62.67215637	      4.09125118	     -9.82232994	     43.48573396	      1.99288223	      7.60051995	    -11.48878920	    -12.10670298	     13.40202413	     -9.72073793	     16.95862603	    -14.83562887	     -7.53670559	      3.24055864
      2.44500000	      7.86381115	      4.47926648	     -2.52473448	      0.76343059	      0.94490092	     -0.03807470	     -0.39261956	     -6.92476801	      0.20577550	    -63.32523153	      4.60147969	    -10.57053957	     43.25972163	      1.55416710	      7.46548486	    -11.45148667	    -11.96672948	     13.62045077	     -9.80147811	     16.90533839	    -14.88704804	     -7.32717941	      3.30170859
      2.45000000	      7.59518312	      4.31167354	     -2.50407768	      0.76855167	      0.94515255	     -0.03856815	      0.68817842	     -6.70760277	      0.18732315	    -64.00835173	      5.29652068	    -11.02988122	     41.60058361	      1.47906408	      7.32124072	    -11.40264835	    -11.97084850	     14.04743102	     -9.61064043	     16.51287532	    -14.64667422	     -7.11813408	      3.27610436
      2.45500000	      7.54416212	      4.11813542	     -2.50496249	      0.77373165	      0.94577050	     -0.03903178	      1.47665784	     -6.45924763	      0.15559478	    -64.52306669	      5.89654987	    -11.68848042	     39.98410724	      1.09358868	      7.17914915	    -11.28645733	    -11.82612856	     14.31309491	     -9.60527733	     16.07506468	    -14.64543594	     -6.88694184	      3.29227489
      2.46000000	      7.51768478	      4.02311557	     -2.55773754	      0.77894663	      0.94637016	     -0.03944455	      2.25152018	     -6.34006167	      0.13412002	    -64.99097649	      6.41447272	    -12.38637861	     39.74911001	      0.65125012	      7.14987323	    -11.24330613	    -11.60420956	     14.47154303	     -9.59766231	     16.02800053	    -14.65916604	     -6.77614578	      3.31640630
      2.46500000	      7.41007992	      3.82427486	     -2.54982890	      0.78408821	      0.94687045	     -0.03987216	      3.08591451	     -6.07696100	      0.06859905	    -65.36358543	      6.87722917	    -13.12312762	     39.30519071	      0.33977187	      6.99256617	    -11.16355453	    -11.47925989	     14.72088758	     -9.59010205	     15.96566793	    -14.59640943	     -6.53634606	      3.31994692
      2.47000000	      7.17796860	      3.67431092	     -2.51064951	      0.78918072	      0.94713212	     -0.04034352	      4.07014280	     -5.87820130	     -0.03663664	    -65.75120906	      7.63472836	    -13.38253964	     36.70685350	      0.20137056	      6.86928624	    -11.07759434	    -11.43057341	     15.08368580	     -9.33462470	     15.46491113	    -14.39810455	     -6.33909373	      3.29981839
      2.47500000	      7.20121233	      3.48072333	     -2.51919320	      0.79439817	      0.94783142	     -0.04074413	      4.70972117	     -5.63038099	     -0.13435313	    -65.92784716	      8.00244181	    -14.11771551	     36.40980038	     -0.32257138	      6.73926640	    -10.96508313	    -11.16122746	     15.22072757	     -9.42892765	     15.39234775	    -14.47250918	     -6.10984981	      3.33391488
      2.48000000	      7.11137250	      3.28407535	     -2.49409818	      0.79956527	      0.94830353	     -0.04114127	      5.47314761	     -5.37587468	     -0.26783915	    -66.09490787	      8.63869767	    -14.48590598	     34.33667777	     -0.65413309	      6.57281335	    -10.95597433	    -11.04515509	     15.56107285	     -9.20678907	     14.96568848	    -14.42462702	     -5.86943180	      3.33891378
      2.48500000	      7.08792749	      3.08384348	     -2.45136422	      0.80476596	      0.94890059	     -0.04158867	      6.12430741	     -5.12811258	     -0.44465670	    -66.13014264	      9.03564121	    -15.07956511	     34.18770272	     -1.09957765	      6.42425617	    -10.84485941	    -10.83222736	     15.69718935	     -9.26722856	     14.93703485	    -14.45045035	     -5.61771615	      3.32513646
      2.49000000	      7.08102748	      2.86319248	     -2.42278792	      0.80996564	      0.94948336	     -0.04193764	      6.74750679	     -4.84031300	     -0.59806622	    -66.11610494	      9.55020040	    -15.46461206	     32.55649241	     -1.55396940	      6.23347813	    -10.84194497	    -10.65214256	     15.99898001	     -8.99905595	     14.64306954	    -14.49362210	     -5.35385464	      3.32775706
      2.49500000	      7.04615822	      2.64688360	     -2.34844036	      0.81513865	      0.95002225	     -0.04239529	      7.37743089	     -4.57314038	     -0.81309276	    -66.01391845	      9.91741044	    -15.93423453	     32.39188049	     -1.98152131	      6.06145828	    -10.69052219	    -10.44693474	     16.15551874	     -9.03825691	     14.61784483	    -14.51165043	     -5.07680711	      3.28114199
